<!DOCTYPE svg PUBLIC "-//W3C//DTD SVG 1.1//EN" "http://www.w3.org/Graphics/SVG/1.1/DTD/svg11.dtd">
<!-- Uploaded to: SVG Repo, www.svgrepo.com, Transformed by: SVG Repo Mixer Tools -->
<svg fill="#ffffff" width="800px" height="800px" viewBox="0 0 512 512" xmlns="http://www.w3.org/2000/svg" stroke="#ffffff">
<g id="SVGRepo_bgCarrier" stroke-width="0"/>
<g id="SVGRepo_tracerCarrier" stroke-linecap="round" stroke-linejoin="round"/>
<g id="SVGRepo_iconCarrier">
<title>ionicons-v5-a</title>
<path d="M48,256c0,114.87,93.13,208,208,208s208-93.13,208-208S370.87,48,256,48,48,141.13,48,256Zm212.65-91.36a16,16,0,0,1,.09,22.63L208.42,240H342a16,16,0,0,1,0,32H208.42l52.32,52.73A16,16,0,1,1,238,347.27l-79.39-80a16,16,0,0,1,0-22.54l79.39-80A16,16,0,0,1,260.65,164.64Z"/>
</g>
</svg>